# xmcd CD database file
#
# Track frame offsets:
#	150
#	23465
#	46287
#	65340
#	89695
#	120500
#	149012
#	166782
#	200817
#	220412
#
# Disc length: 3305 seconds
#
# Revision: 0
# Processed by: cddbd v1.5.2PL0 Copyright (c) Steve Scherf et al.
# Submitted via: CDex 1.70beta2
#
DISCID=900ce70a
DTITLE=The Earth Quartet - Headline
DYEAR=2007
DGENRE=Jazz
TTITLE0=7 O'clock A.M.
TTITLE1=Lala Walkin'
TTITLE2=Mr.M
TTITLE3=Loco Motive
TTITLE4=Strikeout Pitch
TTITLE5=Saturn's Ring
TTITLE6=Asian Dreams
TTITLE7=Golden Leaves
TTITLE8=The Dark Shore
TTITLE9=No Pain, No Gain
EXTD=YEAR: 2007
EXTT0=
EXTT1=
EXTT2=
EXTT3=
EXTT4=
EXTT5=
EXTT6=
EXTT7=
EXTT8=
EXTT9=
PLAYORDER=
